/* XPM */
static char *c8a9f2079c0642dbb0482b023167b37dAbsfbzzguN8OK0m6[] = {
/* columns rows colors chars-per-pixel */
"64 64 181 2 ",
"   c #0F4955",
".  c #114654",
"X  c #124A5A",
"o  c #194C5D",
"O  c #15505E",
"+  c #185260",
"@  c #245A69",
"#  c #325B6D",
"$  c #255E71",
"%  c #2C6977",
"&  c #2E6B7C",
"*  c #346A76",
"=  c #366778",
"-  c #306B7B",
";  c #346373",
":  c #32707E",
">  c #367483",
",  c #3A7582",
"<  c #377989",
"1  c #3B788A",
"2  c #477688",
"3  c #4E7D8F",
"4  c #42808F",
"5  c #49838F",
"6  c #52808F",
"7  c #448597",
"8  c #4E8290",
"9  c #4D8A9C",
"0  c #528691",
"q  c #5A8B9C",
"w  c #54929F",
"e  c #59919E",
"r  c #5594A5",
"t  c #5E97A8",
"y  c #6697A6",
"u  c #629EAC",
"i  c #689DAD",
"p  c #5FA2B3",
"a  c #6AA0AC",
"s  c #65A5B7",
"d  c #6CA6B3",
"f  c #67AAB5",
"g  c #6AA9B5",
"h  c #66ACBB",
"j  c #6BAEBC",
"k  c #73A6B6",
"l  c #73ABB7",
"z  c #72ADBC",
"x  c #79ACBC",
"c  c #66B1BE",
"v  c #6BB1BE",
"b  c #73B2BE",
"n  c #7BB3BF",
"m  c #70ADC1",
"M  c #6DB3C2",
"N  c #6DB9C5",
"B  c #6EBAC8",
"V  c #73B5C4",
"C  c #7AB5C4",
"Z  c #73B9C6",
"A  c #7ABAC6",
"S  c #72B7C9",
"D  c #74BCCA",
"F  c #7BBDCC",
"G  c #7CBFD1",
"H  c #76C1CE",
"J  c #7BC2CE",
"K  c #6FC5D2",
"L  c #76C4D2",
"P  c #7CC4D3",
"I  c #76C9D7",
"U  c #7DC9D5",
"Y  c #7DC7D8",
"T  c #7ECAD9",
"R  c #80AFC1",
"E  c #82B5C5",
"W  c #82BAC5",
"Q  c #82BDCB",
"!  c #8ABECC",
"~  c #83BFD1",
"^  c #82C2CE",
"/  c #89C3CF",
"(  c #82C5D4",
")  c #8AC5D3",
"_  c #83C9D6",
"`  c #8ACAD6",
"'  c #84C7D8",
"]  c #8AC7D9",
"[  c #84CCDB",
"{  c #87CCDB",
"}  c #84CEDB",
"|  c #86CCD8",
" . c #87CADD",
".. c #83CCDD",
"X. c #85CFDD",
"o. c #87CFDD",
"O. c #86CFDE",
"+. c #86CDDC",
"@. c #84CBDA",
"#. c #89CBDB",
"$. c #8BC9D9",
"%. c #8DCBD9",
"&. c #8CCBDA",
"*. c #89CDD8",
"=. c #89CDDA",
"-. c #89CFDB",
";. c #8ACCD8",
":. c #8DCCDB",
">. c #8CCCD8",
",. c #8CC9DC",
"<. c #88CCDF",
"1. c #8ACFDE",
"2. c #8CCEDC",
"3. c #8ACDDB",
"4. c #91C3D2",
"5. c #91CBD7",
"6. c #90C8D5",
"7. c #92CCD7",
"8. c #9ACCD7",
"9. c #94C7DA",
"0. c #98C7D9",
"q. c #97CBD9",
"w. c #90CEDB",
"e. c #92CCD8",
"r. c #91CEDC",
"t. c #9DCCDC",
"y. c #98CBDC",
"u. c #86D0DD",
"i. c #86D0DD",
"p. c #88D0DC",
"a. c #89D1DF",
"s. c #8DD1DE",
"d. c #8FD1DF",
"f. c #8BD1DD",
"g. c #91D3DF",
"h. c #90D0DC",
"j. c #93D1DE",
"k. c #9BD1DD",
"l. c #98D4DF",
"z. c #9AD3DE",
"x. c #A1CBDB",
"c. c #90CFE0",
"v. c #8CD1E1",
"b. c #8DD2E1",
"n. c #8CD0E3",
"m. c #8FD2E2",
"M. c #8FD3E6",
"N. c #8CD2E1",
"B. c #90D2E0",
"V. c #95D0E0",
"C. c #94D6E2",
"Z. c #93D4E2",
"A. c #98D6E3",
"S. c #9CD6E2",
"D. c #99D4E2",
"F. c #95D8E1",
"G. c #94D8E4",
"H. c #9ADAE6",
"J. c #9CD9E5",
"K. c #9DDCEA",
"L. c #A2D2E0",
"P. c #A0D1E2",
"I. c #A0DCE7",
"U. c #A3DCE9",
"Y. c #ADDBEE",
"T. c #AEDEF2",
"R. c #A6E1ED",
"E. c #A7E5F1",
"W. c #AAE6F4",
"Q. c #ADE8F6",
"!. c #B1E6F4",
"~. c #B0EAF6",
"^. c #B5EDFB",
"/. c #BBEFFC",
"(. c #BDEDFD",
"). c #BAF3FF",
"_. c #BFFAFF",
"`. c #C3FBFF",
"'. c #CBFFFF",
"]. c #CBFEFF",
"[. c #D0FFFF",
/* pixels */
"_ P ( ` ' ) Z.( ( ^ J A ^ m z s P Y P U F =.P P | P I P K M P a.J P [ P J P { { _ ( x.L.Q ( ( _ U P P L M M m N D _ %.r.w.5.S.7.",
"^ ` @.( ) %.( b b n n J %.*.C S ( ( U P a._ P P @.P P P M D P P F.g.P U @.u.@.P J h q.'.^ | U U | L I L Y L F D B D b V ) 5 , k.",
"k./ A M C ) F F _ U | _ g.F M ` P P U P a.P P P @.( P L M P J ` W 6 ) =.P D M M N H b A =.@.P P i.D L L I L L P T Y ( ^ %.d w C ",
").l A ( c.r.) @.U U U U s.b ( P U ( P { U H U H J @.U M V P ` h.l @ C V v Z S P P U b J P Z.( P ..L U L L I P L G U *.n.%.C.H.^ ",
"W C Z C ` ( %.' U U ( ( ( J _ J J P (  .H I I L H ` P g ( =.| J F ^ J A J U P U H I c U U n. .( [ U H H U L P L U 1.=.J %.' ` ( ",
"/ v ) %.Q m V J ( ( ` F D | ( U ( ( a.U U U P U U U ^ A =.A Z v ( P ( n.P H P I I H v } ' <.G ' m.( P P H L I .. .( _ ` g.( ;.;.",
"` ^ b D.*._ H Z M A 4.n ) ` J ( F ( T S D B B S v v [.P.A J P U [ U H P u.' L H U S N U ' <.P J @.a.H J P P i.Y H T P [ %.( ` l.",
"_ ( ) Q ` P U _ ( C ^.!.C F v V M ( M B B D H B H | 9.E v Z H P f.P P P L 1.U L U M D L ,.' L L J F.| P { u.P L P L _ [ ` ( ' g.",
"( ( Z.j P _ L I P ( :.Q A '  .U a.;.P U T U Y { i.| j S P D V V ` _ U J P P n.' P b P F ,.U L I ) C Q A.' P J P L P U 1.U ' ) c.",
"P v.{ P M ' Y D L U S z r.V S ' d.J H L L _ { Y H P F M Y ' ' ~ S v Z P @.L F 1.( v P P 1._ L F ,.% - g.' ( P U I D { ( ( ( ' <.",
"' s.( | S M T Y L P F V f.>.M F J J L T {  .P P L P L S U P P c.n.D Z v S G ( ( / J P J =.F P ..1.Z D P J @.T H P 1.Z.P ( P U G ",
"%.=.P U [ M D P P U ( z | | ;.;.h D a._ L L P F L L L M F T  .r s ( P P B m V ( b ` ;._ ` (  ._ J P H P P H T | P < s ( F U P T ",
"b.J | U Y Y m U U L P v ( C.%.( ` G M F P P U P U ..{ L *.,.c.- 7 _ L L I P A ~ './ ( l.l.w.,.( _ ..@.@.[ =.@.N.:.> f f.P P P I ",
"_ U U P Y ( A h H H J v Q %.w.w. .,.G S P { 1.@._ _ ' S A ( ~ J.' P L L I T V C w.) ) F.A.` *.( ..P P P J J P J Z.K.` [ _ Y U c ",
"U J P ( P ^ A 5.).( ( ( u X *.=.T T _ T M M H U P P  .P V ` / f.P P J U L h S F Z g.( | [ J J I H L P L P U J f.( ( :.F P a.' m ",
"U ` ' P _ ` A j.R./ ,.S C z J P L L L L ( A c S  .( U ( V ( _ =.P U U S m P Z.A F J J _ _ P L L L P L P J H _ ;.H | ` ` J ( ~ G ",
"H J D J P U P P S h ' M B ..Y Y L L P P L ' L M M ` ' ' C F %.` ( P Z D f.;.Q g J ( P [ _ P T P P U P P P U m.P ( [ *.( =.( g ^ ",
"^ J ( _ P H P L Y S M F N Y L L Y Y L L L P L U J v P %.C ^ D.l.F S @.@.P F C.^.A S B F U S M D B B B B B U Z S D J ( S b K.R.l ",
"f.C.%.J H L L L L P M M N L I L P P L L U P P U | _ b C Q x ; y ` ( P L P H g.H.j F B F P S B B B B D M P P S S M P F A C K.!./ ",
"J ( f.Z.u._ v._ P L Y h M L L F L P L P U _ ( P J | %.A W !.3 x %.D L L L U v M M L U ' a.P Y I P P K v...P P U _ _ Z.:.` ` n n ",
"P P J J ;.^ t Q _ U u.J h ,.@.' @.u.| P @.p.| [ %.%.) ` S.).S.6.f.| J U L Y M F P h G U | J P G L P _ ..L P L G P { s.P J ;./ v ",
"L L P L ` V X C ( H H v m F ( L P _ ( P U U J J ( ( ^ / 5.Q C F ( ;.[ U L P M P P L h P f.U L U P P ,.P L L P ' @.U @.P ( | H Z ",
"P P { { { F ,.' f.| h F P c Y L P P P P ( ( | _ ( ( *.r.( ` *.j ( F =.Z.@.D S L G P P v f.J _ _ P @.*.F P _ ..' L U [ J | T J U ",
"{ @.P P L H @.@.Z v [ [ P h L L I P P P ( _ P ( U ( 1.' ( =.1.J h ( ( ' c.P S P L L U ( Z _ ` J  .,.G ' @._ U P L P i.J U U L U ",
"I K I L P I _ ( h P P U a.G M Y P P U L U ( U U ( 1.@.( U a.' ' F j L ' ' P ` J I L P  .' j / ` f.J ;.f.P P P L H U p.J ` P P _ ",
"K I I P L U G S P L P F P { D Y L _ U P _ U ( ( n.' U U U v.' ( _ S M ' ' h ( s.Y F U ( g.^ n k.( >.| J _ P L H L J C.( { _ { ..",
"I L P F U S j M.Y G P L P L S F Z.j j ( U _ U f._ P U ( U v.U U L T D S F v ^ ` Z.@.P J ( n k.[.j.^ ( _ P P P P J ^ = k D._ P L ",
"D P P Y S j P u.L L L Y P P P f r.% > Z.^ J f.| U _ ' P _  .U P P L Y D ^ ^ Z B V G F V ) ^ 4./ b / ( _ [ [ a.{ f.` 2 E g.J P H ",
"h P ( Z v U L i.Y L G Y P L ( F P ~ _ :.g.%.` ( ( ` ` P @.| P L L L L L `.U.m S J J [ %.W 8.W ^ / J l.f.,.' _ U Z _ l.H.%.' 1.@.",
"C V b v J U L T ..L Y P P U f.;.j J ` ) ` C.f.^ P J ( P @.U P H L Y L P ^ z S U J U J F . d / ` >.Z b ( ) ( P P J f.H >.=.*.F ( ",
"7.`.j./ ( J P _ Y P D D [ =.( _ V A ( m.:._ ` =.` P P P i.U L L Y L I L F J j J L H | ;.b ` l ( U @.F C ' ( ( U a.U H g.( @.' L ",
"l k.J.h.f.p.| *.H.~ H.W.P P _ _ ( g F C.%.( ( P _ 1.' @.M.P P I L L P P U P P h H i.@.J ( ( F ( U L ,.A M _ _ U i.H _ _ [ L { U ",
"J D ( ( U @.=.;.m ! !.~.b v S S A / R./ D.) ' ' ( P f.g - ~ P L L I P P L L P P S @.P P P M ] ' P I Y ' S v P [ @.H _ ( [ P H a.",
"L P ' { J P ^ h.o q ) g ( P J F b J._.l C Q A A F ^ ;.g , ( ' L L G J J P L P v.J f P P U v ( n.P F Y L U M V f.U U _ P ` p.P S ",
"L I P U _ P p.| Q ~ ( j U U ( ( | ^ J ( ^ ` F S S Z h F ` M D F ( %.( P P _ N.H I H m L P M L Y ..P Y L P P F F P J [ P J | c M ",
"I H P H p.p._ U U P P j P P ( P J U T J ( =.n.' ( ` J ` ( Z V h Q.^.d v F ( H H L U S S V m T L ..T F Y J P g.j S ( ` P Z Z J U ",
"@.,.P =.{ @.L T U P U M D P T U U U J _ P P r.( ( P ( :.@.' Y U Z.) ) X 7 ) M S M m S z 6.) H P P { ( H P _ ' ( z %.) v M T p.H ",
"~ 9 ' @.A U U U U P Y M F ' P P J | U U U P ,.:.P P ( m.P L P ..J J %.V A ' :.*.*.@.F d `.U.J | F P a.P F 1.P ( C ).K.Z @.P i.H ",
"k @ F :. .P { P J H P S S U P T _ P J U U ( J a.( ` ( :.P J P | ' s.L <...F P P D M F ( A 5.* e <.P _ :.Z.c.~ S b F J v S F a._ ",
"y.D.,.P _ _ ,.m._ T U B V Y I L U P U P U ( ( ` u.J ( 1.J P ` | ,.P L L N.P D h M F ( Z v h.6 i b.@.a.b 1 F m S ^ v J _ S j S ;.",
"*.( { _ L L F .. .( .._ F _ Y L F P P P U U _ J s.^ | -.J ( l.| P P P P ' m M D Y L U M U @.D.%.F L :.u $ ~ *.n.( Z J H P P C F ",
"s.P J u.U F P L _ P P P M ..{ { v.Y | J H J J ( ) >.| ( _ l._ J ( P N h P P Y I L P P P ( D ' ' U U Z m ] ] ' ' J J p.p.@.U ( %.",
"J F _ U 1.P Y L U ..J P M P F ..b.d.p.;.f.p.( ( F w.I.4.l.| _ U M v D H { ' Y L J P =.S Y P n.' S v F ( ( ( ' U v J P P U  .m.s ",
"' j B J | @.H P L ..P P M L L { P a.J J U | ;.;.:.Q 3 ! >.J v v D P U H .._ G L _ s.Z V Y ' *.V M P @.P P P P U v U P U _ F ( ( ",
"L U F M V @.@.P U P ..U M S _ ,.J _ f.P J J J J U j # x.^ Z J ( P U L L U { P ` | J c J _ Z F P ' P L U L ' P P m L U ' P U 1.' ",
"Y L L P Z j P F J P P @.S S a.( P J a.[ U U P U U J (.`.b _ =.1.@.p._ ( P P | [ ^ _ Z Z v V 1._ P P L Y U U ( V B U P P U v.U L ",
"L L P L P G P V S _ P *.F V :.U ' U ( b.( U P P U U v b b U F ( P ( _ 1.`   u ` P P f b J U =.` P L L Y U I U M D Y U U N.P L L ",
"P P I L P U P :.S j A *.*.V 1.P U U P _ =.P U P U v N U c H U _ _ _ L ' y.l ) ( ` D A f.| P =.( P L Y L L L P M L P P u.P H L L ",
"( ( U ( ( ( ( _ Z.( A b / W ^ P H U P P { @.J U H c L I P c U P _ P ( M.` ` g.( ' S G L U U Z.*.) P P D I L H M P H { U H I L U ",
"P J P P P G F D J _ J C k '.g.H U P L U I N.P P v F Y L P S M T J _ M.( U ( J Z.( M G L G L *.( '  .@.T F U S j ( b.( P Y I I H ",
"M V V V S Z V S Z ( J C ` H.^ J P L L L L Y v.S M Y G I F Y M M a.a.P ( U U P =.,.M Y L L L [ _ P L P T _ ' T.9.( C b S M M M M ",
"' ( U ( U _ ` ( _ ( h./ r.b Z U U L P L P P 1.M G L Y L I P P S ( _ U U U U _ _ ' F L L I L [ U ( @.P P F ) (.T.Q F F S F H K L ",
"U P ( ( P ( P J L J ' %.] A S U L P L L L @.S ( Y P J P H H <.( j J ^ _ P U U U V @.P Y L J [ _ P I L @.[ ^ ) C S a._ U L L U L ",
"P U P P P U P P U P ) % < ,.M ( L P L L U P j ( ,.G P P U N._ ( A W.=.P @.U H H m  ...I P J ` P H U @.U J f.( U v D T U @.U L L ",
"P U U ( ( U P P P F r.V m { S :.@.T | J ^ j J ^ ,.' F A U S S g Q ).( ( U L H L V Y { P P P | ( _ @.P H [ _ P P P c L L L T _ U ",
"P P P ( U U P H _ ,.*.G.{ F m P P U _ ;.E./ J A V ~ j Q Z A P ( C z b P U P U M S Y P v.J J %.` ( J P p.( P L P P D M P L P L _ ",
"_ _ P J ( P U p.[ J %._ | ( Z J P P P F `.S.V P Z.r + e.[ ` P ( d ) D M U J P M H P J U { ( s._ P L a.( H I L P L U B M Y L F L ",
"| =.| ( J _ N.| F *.;.( ( J V F U L P v C ) J P ( F z %.( @.:.( F [ _ M B P J v U J P U Z._ ;.J F <. .P L U L P L L _ M D Y Y I ",
"J ^ ( %.:.:.J J ( f.^ _ >.( Z Z P I L m P ` U P ' { ( a.J P L V P _ [ p.D @.( S J ( ` U P 1.;.( 1.' F L I H P L I L U U m G F ..",
"( ( ' Z.%.=.[ P ` ` ^ U f.J J B T Y h F P U U P a.L H U { P P M P P J P D V C Q Z.d.[ | U _ %.` ( G U P L L L I U P U _ L h P <.",
"^ ;.f.( ~ ( ( *.l.( ( ( s.J J b @.S S ( P L _ [ @.P Y L _ _ B S P U U P ( A T.9.^ J p.U _ *.o i ,.P H H L I L ' ' ' ' U P B M s.",
"f.| J ^ ' P P ` | | >.( >.( ^ Z P j ( U L P @.b.F L L L P m.m P L L L H P ,.].! v v N H @.` l Q =.{ _ P P L G L Y Y ' U I L Z ^ ",
"_ J _ _ ( U _ %.J J ^ ;.C.' / V z D U I P L u.@.L L Y L P F J P P P L L | _ A ' ( ( ( J C z 5.) S L _ ....T Y ( G ' U U I F :.V ",
"U U ( P U U =.f._ ;.' ^ r.` l.j v ` J P G U @._ P L L L ( h =.( P P L i.U J P J d.Z.) ~ ) ) ^ F M M M B P U @.n.a.' U U P P *.' "
};
