/* XPM */
static char *b2bfba9bfa3c408a87c8c36d5ec0863f0a4KZ8UA0cY1ch3M[] = {
/* columns rows colors chars-per-pixel */
"64 64 155 2 ",
"   c None",
".  c #060505",
"X  c #0A0606",
"o  c #0C0C0C",
"O  c #130506",
"+  c #1C0607",
"@  c #1C0708",
"#  c #130B0B",
"$  c #1C0A0A",
"%  c #141414",
"&  c #171818",
"*  c #1B1C1C",
"=  c #230709",
"-  c #240B0B",
";  c #2B0C0D",
":  c #340B0D",
">  c #3B0C0E",
",  c #310F10",
"<  c #3E0D10",
"1  c #2D1010",
"2  c #351112",
"3  c #3C1314",
"4  c #1F2020",
"5  c #232424",
"6  c #272828",
"7  c #2A2A2A",
"8  c #323232",
"9  c gray23",
"0  c #410D0F",
"q  c #440E10",
"w  c #4B0F12",
"e  c #431516",
"r  c #4C1113",
"t  c #451718",
"y  c #491718",
"u  c #441818",
"i  c #4C191A",
"p  c #541014",
"a  c #5C1215",
"s  c #541B1C",
"d  c #5B1D1E",
"f  c #621317",
"g  c #661518",
"h  c #6C1519",
"j  c #62191C",
"k  c #6C191C",
"l  c #70161A",
"z  c #74191D",
"x  c #781B1F",
"c  c #5E1F20",
"v  c #601F20",
"b  c #771D23",
"n  c #7B1E21",
"m  c #5E2021",
"M  c #642122",
"N  c #6B2324",
"B  c #732627",
"V  c #7E2124",
"C  c #762728",
"Z  c #782728",
"A  c #772829",
"S  c #7C292A",
"D  c #822326",
"F  c #862628",
"G  c #882729",
"H  c #802B2B",
"J  c #812A2B",
"K  c #802B2C",
"L  c #822B2C",
"P  c #832B2C",
"I  c #832C2C",
"U  c #852C2D",
"Y  c #862C2D",
"T  c #872C2D",
"R  c #862D2E",
"E  c #872D2E",
"W  c #842B2C",
"Q  c #882D2E",
"!  c #892D2E",
"~  c #8A2D2E",
"^  c #892E2E",
"/  c #892E2F",
"(  c #8B2E2E",
")  c #8B2E2F",
"_  c #8B2D2E",
"`  c #902D2E",
"'  c #852D35",
"]  c #8D2F30",
"[  c #8E2F30",
"{  c #8F2F30",
"}  c #8E2F30",
"|  c #912E30",
" . c #912F30",
".. c #863135",
"X. c #8C343E",
"o. c #903031",
"O. c #913031",
"+. c #923031",
"@. c #933132",
"#. c #943132",
"$. c #953132",
"%. c #973132",
"&. c #973232",
"*. c #963233",
"=. c #973233",
"-. c #973234",
";. c #973334",
":. c #973335",
">. c #963233",
",. c #983233",
"<. c #993233",
"1. c #983334",
"2. c #993334",
"3. c #9A3334",
"4. c #9B3334",
"5. c #983436",
"6. c #983334",
"7. c #973639",
"8. c #96363A",
"9. c #91373C",
"0. c #983538",
"q. c #993638",
"w. c #993639",
"e. c #99363A",
"r. c #993639",
"t. c #9A383C",
"y. c #9B393D",
"u. c #9A393D",
"i. c #943C46",
"p. c #9B3B41",
"a. c #9D3E45",
"s. c #9D3F46",
"d. c #9C3D43",
"f. c #9E4047",
"g. c #9D4048",
"h. c #9E424B",
"j. c #A0444E",
"k. c #A1454F",
"l. c #A0444D",
"z. c #A14651",
"x. c #A14752",
"c. c #A14751",
"v. c #A24854",
"b. c #A34A56",
"n. c #A34A56",
"m. c #A44B58",
"M. c #A54C59",
"N. c #A54E5C",
"B. c #A54E5C",
"V. c #A7505F",
"C. c #A75160",
"Z. c #A75161",
"A. c #A85262",
"S. c #A95464",
"D. c #A95363",
/* pixels */
"                                                                                                                                ",
"      7 % . o o & * * & o . o *                                                                                                 ",
"    8 . X $ $ $ $ - 1 2 3 2 $ . o 5                                                                                             ",
"    % X # 1 u N / o.o.@.:.@.R M 1 X o * 6 %                                                                                     ",
"    # s 2 A m i } ,.;.&.:.;.;.;.} c ; # # O # X o . o % 4                                                                       ",
"  6 $ R u N 3.;.&.;.&.;.;.;.&.&.;.6.} I S K Z N m i 2 $ o . o * 8                                                               ",
"  7 X A A 3 8.;.6.6.;.&.&.&.&.M , M c T 6.6.6.6.3.;.o.~ B d 1 # X % * 7                                                         ",
"    X d o.3 A o.M ~ ;.&.;.&.&.3 = O O i 6.6.;.&.;.;.6.6.,.6.o.R M 3 $ o o % 6                                                   ",
"    o 2 &.Z R o.y 2 W 6.6. .6.v B B d v 6.;.6.;.6.6.;.&. .;.&.6.,.,.~ N e $ X o 4                                               ",
"    * $ R 6.&.;.| i v 6.&.;.;.6.6.4. .6. .;.6.6.6.6. .6.6.&.;.&.,.,.6.3.6.W M 2 # o 5                                           ",
"    5 X B 6.;.&.6. .;.&.,.6.;. . .6.6.6.6.;.&.6.;.&.6.6.6.6.&.;.;.&.;.&.;.%.6.o.Z y $ o & 7                                     ",
"      . m 3.&.;.;.&.6.;.&.,.6.6.;.&.;.6.6.6.;. .6.6.6. .;.;.;.&.&.;.&.;.6.&.&.6.3.;...M 1 # o 5                                 ",
"      o 3 :.:.&.&.;.&.;.e.p.0.;.6.6.;.6.6.6.&.6.C v  .4.6.6.6.;.;.&.&.6.] e s 6.:.:.,.6.| B 3 O X o 7                           ",
"      % ; } :.&.;.&.;.&.s.A.m.t. .;.;. .6. .;.6.C , , s v N ~ &.,.;.6.6.d = @ M ;.&.;.&.;.;.| j < $ . % 7                       ",
"      & O K %.;. .6.,.&.e.m.A.m.t.&.6.6.6.;.&.;.6._ N i e 2 ; s T 6.6.6.M M ; - S 6.&.;.&.;. .n l h w = X %                     ",
"      7 X N 6.6.6.6.,.,.W 8.B.A.v.6.&.6.6. .;.j.x.t.6.6.6.o.Z 3 , T 6.6.;.;.K 3 R ,.;.&.;.&.6.D l l z h p = o 7                 ",
"        o i 3.:.| ~ 6.&.e s 8.j.V.x.3.;.&.;.;.a.m.B.s.;.;.;.,.| s , K 6.,.;.;.| ;.6.6. .,.,.N y w w p g l h > O &               ",
"        o 2 @.3.c y ;.6.S - s ;.h.A.n.e.;.&.;.&.6.a.V.v.s.a.e.6.| i , v ~ 6.6.6.6.6.6.;.6.,.B 3 : ; = = q h l p @ *             ",
"        * $ ..&.2 ; S } 6.C - c ;.x.A.l.&.;. .6.;.&.h.A.A.A.m.e.;.&.N , ; y c N Z } ,.a.x.p.3.o.z l h p + a l l a $ *           ",
"        7 X B ,.B @ - B 6.6.C - M e.m.V.y.&.6.6.;.;.e.s.x.B.A.j.&.;.6.| C s y 2 ; , d 9.V.A.M.x.i.' z l > = a l l a @ *         ",
"          o d ;.;.B M | &.6.6.d , | j.A.B.p.6.;.&.;. .} &.e.j.h.;.6.;.&.6.6.6.| W N 2 2 ' f.h.x.V.V.' l h q + w l l p # 8       ",
"          % 2 o.6.6.6.6.;.6.6.K ; T l.A.A.m.0.;.;.&.| e N ,.;.;. .6. .;.6.6.;.&.6.6.| s s  .&.&.h.A.X.h l h w + w l l > %       ",
"          4 # R 6.6. .;. .6.6.W ; K p.A.A.Z.t.&.&.;.6.N - N ;.;.6. .6.6.6.6.;.&.6. .6.&.} 6.&.,.} X.b l l l l w = r l g @ 6     ",
"          6 X M 6.6.6.6.6.6.&.} ; B 0.h.A.m.6.;.;.6.&.;.c = C 6.6.;.6.6. .;.&.;.6.;.&.;.6. .;.,.F h l l l l l l w + w l q %     ",
"            o 3 &.&.o.d K &.;.;.e i ,.6.p.e.&.,._ N | ;.;.s ; B 6.6.6.;.6.6.6.;.;.&.;.&.;.&.6.,.G l l l l l l l z q = h f @     ",
"            % # I ,.6.3 d 3.&.6.B - K ,.&.6.;.6.Z , W 6.&.&.s = e d s e y Z 6.&.&.;.&.;. .;.6.6._ l l l l l l a h g = f h = *   ",
"            6 X M 6.6.M , | &.;. .y 2 | 6.6.;.6.} 3 , J 6.,. .N e i v d , , J 6.6.&.&.,.6.6.;.6.` l l h l l h = r w = h z < %   ",
"              . 3 ,.6.R ; C 6.&.6.} 2 2 Z ;.6.6.;.| e e ;.4.6.6. .6.6.6.;.v 3 S 6.6.;.,.6.6. .6._ z l l l l l q = > p l l p #   ",
"              o ; / ;.&.i y ,.,.,.,.~ y ; y C  .,.,.~ , i M s } 6.&.&.&.6.6.v - d Z o.,.3.3.3.3.` l l l l l l l 0 = h l l a #   ",
"              & o A 3.3.B , } ,.6.,.;.&.S s ; y } ,.,.K e ; y } &.6.d.a.6.&.;.N 2 ; 2 e d N Z ] ` z l l l l l l l ; r l l f #   ",
"              7 . c ;.6.Z ; R ,.s.h.e.;.;.6.S , y ;.6.,.&.| ;.;.;.;.h.A.v.t.;.6.&.R B d y 3 1 ; e a l l l l l l l > > l l f $   ",
"                o 3 &.;.S ; R ,.y.B.M.y.&.;.6.Z - Z 6.6.;.&.;.&.6. .;.x.A.V.v.s.t.3.,.3.:.o.} Z p = r l l l l l l w = h l a %   ",
"                & $ ] 6.| e 2 Z ,.z.S.M.t. .,.6.e d 6.&.;.&.6.6.6.6.,.y.B.A.A.A.Z.x.y.&.&.&.6.6.` w = h l l l l l p = h l p #   ",
"                6 X B 6.6.} s ; S w.n.A.j.;.&.6.v e ;.;. .;.6.6.&.;.6.6.e.p.a.x.B.S.B.p.&.;.&.,._ h = a l l l l l > > l l w %   ",
"                  o i ;.6.6.6.y i ,.e.V.V.e.6.6.B , | 6.6.6.;. .;.6.6. .6. .,.;.e.v.A.h.;.&.;.;.F h = p l l l l l w a l l : &   ",
"                  % ; } 6.&.6.M , _ 6.n.A.l.6.6.] ; N 6.6.6.6.6. .6.6.;.6.&.;.&.;.3.d.8.&.;.&.6.F h = a l l l l l l l l g $ 7   ",
"                  5 X B 6.&.6.~ 2 d ,.a.A.h.&.6.;.s , } ;.;.&.6.;.&.6.6.6.;.&.;.;.,.,.;.;.&.&.,.D g = a l l l l l l l l a #     ",
"                    o e ;.&.;.&. .| &.&.p.0.;. .%.} , i &.6.;. . .;.&.6.6.&.6. .&.~ J | ,.;.&.,.n a = h l l l l l l l l < %     ",
"                    & $ R ;.;.&.6.%.;.&.&.&.6.6.6.6.W , s | 6.6.4.6. .6.6.6.6.6.;.d ; 2 C ,.6.o.x > : l l l l h h l l g $ 7     ",
"                    * o N 6.&.;.&.;.&.;.;.&.6. .W 6.6.W 2 2 M d N ;.;.6.6. .;.6.;.| R d ; ~ 3._ h + w l l l l 0 > l z r #       ",
"                      X u ;.,.&.6.6. .6.6.;.%.d 3 N  .6.~ y , e d  .6.6.6.6.6.;. .6.6. .3 j 3.G a > h l l l l a @ f h ; 5       ",
"                      o $ ' ,.o.M S 6.&.6.;.6.y @ , &.6.6.6.| &.6.;.&.;. .;.;.&.6.6.6.6.s i 3.V h h h l l l l w = g p #         ",
"                      * X B 4.B O s &.;. .;.6.S i B &.;.;.6.6.;.;.6.;. .;.0.&.,.;.&.6.6.M 2 _ x l l l l l l p + r h ; *         ",
"                      8 X i 3.I ; @ B | 6.&.6.6.6.,.;.;.;. .6.6. .6.6.6.6.x.t.6. .;.6.6.R : 3 a h l l l l p + > l w #           ",
"                        o 1 @.6.S @ ; K 6.;.| 6. .6.6.6.6.6.;.&.6.6.6.,.,.a.m.j.a.e.,.,.,.J q = w h l l l g p h f @ 6           ",
"                        4 O K 6.&.v N  .6._ e S 6.;.6.| d W  .;.6.6.6.6.B B y.n.A.V.a.,.&.` z r = h l l l l z l : %             ",
"                        8 X v 6.;.6.6.;.6.&.s , ] &.6.| 3 s ;.&.;.;. .6.d 2  .0.x.A.A.a.&.D l h = a l l l l h r o               ",
"                          o 3 ;.&.;.;.;.;.6.| , y ;.;.6.Z ; c &.6.&.6.6.J ; i W 6.f.n.j._ z h h = a l l l l a @ 6               ",
"                          & $ / &.;.&.y.z.y.&.Z - d 6.,.6.Z 2 2 S 6.;.&.6.K e , R ,.4.,.n l l r ; g l l l g = *                 ",
"                          7 o M ;.;.&.t.Z.B.h.e.N ; d o.6.6.} s ; N %.;.,.6.&.i ; d v s w h l > q l l l h : %                   ",
"                            o 1 } &.;.3.m.S.Z.y.,.A 2 2 C | 4.4.N ; B 6.&.;.,.| B s > ; 0 l l h l l l l q o                     ",
"                            4 . M 6.;.;.d.N.h.e.,.6.| v , , c S } d , W 6.&.;.&.,.` x l l l l l l l l w # 7                     ",
"                              & $ I ,.&.&.e.3.Z N ,.,.6.~ M 2 ; ; 2 @ ; B &.6.6.` n h l l l l l l l r # 5                       ",
"                                o 3 } 6.&.;.;.3 y _ 6.&.,.6. .W C N B d : 3 d v j g g l l h l l l q # 8                         ",
"                                8 o i &.&.;.o.3 O 3 B &.&.&.;.,.6.6.6.6._ M > = = = ; > > : h h > # 5                           ",
"                                  & o y o.,.:.R s $ , | 6.;.&.;.;.;.;.&.` D z h h g p w 0 p a ; # 9                             ",
"                                    6 o 3 R 3.3.,.K R 6.;.&.&.&. .6.| d q w > p l l l z h q $ *                                 ",
"                                      7 o - M } 6.6.6.6.&.;.&.&.| F b a @ O = p l l h r = # 6                                   ",
"                                          4 o 2 N } 6.6.| _ F V l l l l f p h l g w - # 6                                       ",
"                                              & o - y j k l h z l l l l h f w : # % 4                                           ",
"                                                  5 % o # = : : > : : ; + # # % 6                                               ",
"                                                        6 * o & 4 * o 4 6                                                       ",
"                                                                                                                                ",
"                                                                                                                                "
};
