/* XPM */
static char *f838f1a4998641ff850f316b52d89d19Eku8fgTxLDUUdz8w[] = {
/* columns rows colors chars-per-pixel */
"64 64 180 2 ",
"   c #060505",
".  c #090706",
"X  c #080807",
"o  c #0C0C0C",
"O  c #110F0E",
"+  c #0F0F11",
"@  c #100F10",
"#  c #0F1013",
"$  c #151415",
"%  c #181717",
"&  c #181917",
"*  c #171718",
"=  c #181718",
"-  c #17191C",
";  c #1B1B1C",
":  c #211E1A",
">  c #1E1F21",
",  c #1F2023",
"<  c #232325",
"1  c #2A2523",
"2  c #272827",
"3  c #2E2925",
"4  c #262729",
"5  c #282729",
"6  c #27282B",
"7  c #2A2B2D",
"8  c #302F2F",
"9  c #2C2E32",
"0  c #312F31",
"q  c #2E3134",
"w  c #2E3339",
"e  c #323335",
"r  c #383736",
"t  c #34363A",
"y  c #36393C",
"u  c #393B3D",
"i  c #373A42",
"p  c #3C3E42",
"a  c #403F42",
"s  c #3E4144",
"d  c #3E434A",
"f  c #414346",
"g  c #43464A",
"h  c #45494D",
"j  c #494C4E",
"k  c #464C51",
"l  c #4A4E52",
"z  c #4C5155",
"x  c #4E545A",
"c  c #525456",
"v  c #51565B",
"b  c #58575C",
"n  c #54595E",
"m  c #595A5D",
"M  c #635C57",
"N  c #4F5860",
"B  c #555C62",
"V  c #595E63",
"C  c #565F69",
"Z  c #585F69",
"A  c #576066",
"S  c #5B6166",
"D  c #57616A",
"F  c #5C646B",
"G  c #5F686F",
"H  c #5D6771",
"J  c #5F6972",
"K  c #616265",
"L  c #61666B",
"P  c #686769",
"I  c #62696E",
"U  c #686A6E",
"Y  c #646C73",
"T  c #6A6E74",
"R  c #666F78",
"E  c #667076",
"W  c #6A7176",
"Q  c #67717A",
"!  c #6C767D",
"~  c #6D767F",
"^  c #6D777F",
"/  c #6C757D",
"(  c #6B747B",
")  c #6E787F",
"_  c #72767C",
"`  c #72797E",
"'  c #6C7781",
"]  c #6B7881",
"[  c #6D7980",
"{  c #6F7880",
"}  c #6E7881",
"|  c #6F7982",
" . c #6F7882",
".. c #6D7A83",
"X. c #6F7A82",
"o. c #6E7B86",
"O. c #6F7C86",
"+. c #6E7983",
"@. c #6F7F88",
"#. c #6F7F8A",
"$. c #6F7D89",
"%. c #737781",
"&. c #707881",
"*. c #707982",
"=. c #717B83",
"-. c #717B84",
";. c #717C84",
":. c #727C85",
">. c #737D86",
",. c #727E86",
"<. c #737F87",
"1. c #747D85",
"2. c #757E85",
"3. c #747F87",
"4. c #727C85",
"5. c #797D83",
"6. c #707F88",
"7. c #727E89",
"8. c #737F89",
"9. c #737F8A",
"0. c #757F89",
"q. c #737E89",
"w. c #787F88",
"e. c #758087",
"r. c #758086",
"t. c #7A8086",
"y. c #71818B",
"u. c #73828B",
"i. c #758088",
"p. c #758189",
"a. c #768189",
"s. c #75808A",
"d. c #75818B",
"f. c #76818B",
"g. c #75828A",
"h. c #77828B",
"j. c #72828C",
"k. c #75808C",
"l. c #75818C",
"z. c #75818D",
"x. c #76818C",
"c. c #75838C",
"v. c #74828C",
"b. c #76838C",
"n. c #77828D",
"m. c #75828E",
"M. c #77828E",
"N. c #77838E",
"B. c #76838E",
"V. c #77848D",
"C. c #77858F",
"Z. c #75818B",
"A. c #78838F",
"S. c #79858D",
"D. c #78858E",
"F. c #78848F",
"G. c #78858F",
"H. c #78868F",
"J. c #7A838C",
"K. c #7F898E",
"L. c #758491",
"P. c #798590",
"I. c #788590",
"U. c #798691",
"Y. c #798690",
"T. c #7A8690",
"R. c #798692",
"E. c #798792",
"W. c #7B8793",
"Q. c #7A8691",
"!. c #7C8893",
"~. c #7E8992",
"^. c #81858B",
"/. c #83898F",
"(. c #848D94",
"). c #888E96",
"_. c #868F98",
"`. c #8A9199",
"'. c #909297",
"]. c #94979B",
/* pixels */
"W c.0.h.A.S.c.S.C.C.u.:.r.6.:.:.C.a.c.W.W.R.L.L.I.j.L.P.I.I.P.W.L.0.6.9.W.L.P.I.I.A.A.L.0.9.c.A.A.S.c.9.u.a.a.j.c.6.c.I.9.9.6.0.",
"E c.6.6.a.A.j.u.j.u.y...Q Q Q Y Y Y Y Q ] Q ] Q Q Y J Y Y I H D D H H H J H H F D D S F D I F Y Y G H Y J F H Y R R Q ] ] o.o.>.",
"f y y y y y r f s u t 8 s h h h k k k h h h g h g h h h g g d d g p g h h h k h h g h h h k j j j j h f g u 7 y i p u r y p p p ",
"f u u s t r y h g u e z D S Y ..:.r.a.....] Q -.:.9.>.+.+.-.] ( ( Y ( P.P.S.a.c.c.a.6.a.A.c.>.e.a.0.a.] Y I g y p g g u y y p y ",
"Y %.&.&.&.:.a.h.w.^ ( ^ Y z n D z n n n x B D C V C B N V D C C T p t e t I a...B D S D S n A n n n Y V Q u.X.Q &.&.1.>.&.( &.&.",
"m S m V V S S V V F F n I V n v z z l z B U F V B B B n V Z B V k e g c p y m v m m n B B B B F Y x b m v z n m B n v v V B l v ",
"g z s g k j h h g j j t 9 f s s y y u s s f s p i p p p s p s h e s b Y K g y y a u u u u u y z m y g v z f g g h h j j m m k g ",
"m L &.1.%.1.%.t.J.( E m j k k z x c x B K v m B v v c z d z x x V V B k B m S V S S F L F Y L W n m Y ^ ;.1.%.5.%.` 1.5.%.T T V ",
"t p -.0.-.4.w.c.J.0.Y d v V L Y T ;.>.K.(._.(.(.S.h.>.Y V ( Q ( Y Y Z l S Y ) ^ ( T W ( ` S.S.1.z g ( u.S.A.h.A.e.+.0.0.h.Y Y x ",
"c V -.-.-.0.6.9.0.a.+.z g k F S F u.E ) u.:.a.>.Q W ;.S h Y I I F F B d k S >.:.4.( Y a.r.( ^ 1.n y Y a.>.>.0.a.:.( ] :.w.h.0.D ",
"V K -.R R R R ( Q Q Q Y u c b F ( a.S.(.K./.>.W m K ) W L t.` &.&.+.Y V F Y 6.a.a.a.a.j.r.S S ^ B t B :.%.a.>.>.+.Q +.-.-.-.:.S ",
"z B 0.-.-.4...>.u.C.Y B g ` W K &.a.+.) ` ( ` E U W Q u.(.(.(.(.(.(.~.(.S.-.-.&.+.&.>.&.1.` 5.T F h h :.&.a.:.a.&.^ -.+.......B ",
"j B w.-.:...:.>.y.y.G A g _ U G :.a.+.&.` ( T 1.1.` t.K.h.%.&.^ ( ( Q Q ( ^ Q T ( T T ( 1.1.t.( Q f e W &.-.0.Q ] &.-.-.-.+.+.B ",
"r h w.Y Y ..] -.r.) A k x ! I I 0.0.&.a.e.;.+.a.>.;.a.S.h.0.>.&.^ ) Q ( ] _ ^ T W Y Q 6.h.h.;.^ %.x ; I >.0.S.( ] 0.-.-.+.] +.Z ",
"j n >.R ! a.g.y.y.G F s S W I ( a.0.4.h.a.:.>.:.:.:.a.u.u.6.6.c.c.j.a.0.h.6.0.-.+.:.0.6.:.a.a.&.! I , k 0.Q R -.4.&.R -.] ' ] Z ",
"f x F p g h k h F G A s E G m ! w.4.h.A.a.>.4.>.6.:.e.u.j.a.0.0.6.a.u.c.A.:.0.4.-.+.:.:.>.0.c.c._ ( e q ` 6.0.Y x ' -.R R R ' Z ",
"g k x B V V v m B >.n g :.v h a.&.&.W +.a.:.:.:.:.u.j.c.>.6.0.6.:...u.6.u.6.u.:.6.:.:.:.:.a.( +.e.E n q F e.a.x x Y :.:.-.] ( C ",
"r u Y ;.( Q Q ..Y Q h x ^ s S &.Y ( W ;.a.a.a.a.:.a.c.6.>.0.c.4.6...:.a.6.:.:...:.:.:.:.&.;.( ( W F I 6 z J.Q B Q Y -.0.-.] ] B ",
"8 p +.0...-.:.:.Q F y x B x I V S F W ( W Y R Q E E ( ;.-.0.0.6.6.:.a.u.] L F S V S V A S F I F m G W s p ) E Y Q Q &.>.+.+.' N ",
"u k +.:.:.0.0.u.+.n p T F B Q I Y I I W Y Y T Y b v F E -.-.:.-.0.6.&.( S Q &.:.:.$.;.;.;.I I ..r.r.) n 7 I X.+.h.] 6.0.>.>.' B ",
"e h &.>.6.6.0.6.4.h h ^ c f k l j j j j z c L ;.K I a.F B B V V V S V n Y u.C.Q ..a.u.u.>.L L r.r...( m < v >.;.0.-.-.9.' Y ( N ",
"9 h ..0.0.a.P.W.4.i V &.V V h f p a f f a f f T E E ! W L ^ c.:.a.A.S.P.~.S.~.S.P.!.S.S.J.t.K.S.C...( S 8 S 1.e.9.9.&.( ( Y H n ",
"t i k k k k k v j 7 F I x Z ( T t.~.~.S.;.^.S c L P U U T W ` ` T Y Y Y T U Y I L U V V V F L F S S m c s v F L I K v v v v z k ",
"U e $ = : < < 5 h p p r 5 f ( ( a.:.:.:.1.S._ f u a a u u u u a 3 j < f u g k h g h 7 > e u < < 2 e u q e e g c p < 5 > = = : V ",
"T a.>.>.-.0.A.;.:.W ( ( ( Y -.0.0.a.>.>.:.a.+.( ( ` ` ` ^ ` ^ ` %.>.1.r.e.t.J.e.>.1.` >.5.S.K.t.S.1.` e.a.>.e.h.w.A.>.` ^ r.:.:.",
"y t q t y e t t w q 7 7 y I ] -.6.0.0.>.0.0.a.u.a.a.a.c.u.a.0.>.0.a.a.u.e.:.r.e.:.a.e.e.a.h.a.Y ;.+.g.v y y u y y y i p y w y t ",
"7 < 6 e y p r e e a g g y g Y >.0.6.a.6.0.0.0.>.-.-.a.a.u.u.a.6.a.u.a.C.g.y.C.g.u.0.:.a.S.C.u.c.h.( F j m K P b h x z l g e ; ; ",
"u c S.~.(.(.(.A.J.~.r.) Y h D ' a.>.0.0.0.>.>.0.0.6.u.u.Q R S S F G F A Y F B A B D F D S S Y u.>.^ m c :./.(.).`.`.(.h.a.( j s ",
"; u ) 0.>.h.A.4.;.r.+.-.Y l I R :.$.6.6.>.0.6.6.a.a.u.u.Y J B n v n n n S A B B G n z n v A D r.:.Q V l 6.Y Y 0.:.:.^ ..X.F e 2 ",
"3 s Q Q V ^ 6.-.! ..6.c.Q g V F F I Y Y Y Y Y Y Y Y I Y F F F S F F F G J Y G H E F A F G I G E Y F K M :.&.c.6.:.:.+.+.:.E 8 2 ",
"9 d ( ..V ] w.0.:.:...a...k y l z l z z l k z c z k l j z j z z x x v x v v n n n v n A m A A v v I b h 0.&.>...u.:...;.Q Y q 6 ",
"p h E ..-.-.0.0.:.u.u.u...V u r e t y e 9 e e t e q e e q q q q q q e e e y y u y e e e e e t e e t f m >.6.a.a.H.L.C.r.E Q s k ",
"k x J ....] -.>.-.-.6.0.' Y V n m v V V n n n n B n z z l k k z d d x v x x c c B V B V B V V V v B D B W S B S F F F F F B z n ",
"b B J ' Q ( Q &.>.6.:.6.6.0.9.S.c.!.A.a.C.P.S.E u.Q.u.X.^ S Y I n A n G ! E G r.9.w.w.R.9.I.Q A.` V S Q W V v v x z l k l l z S ",
"d x C B x B F Q 6.>.-.6.6.>.&.-.-.:.;.:...:.a.-.X.r...:.a.:.>.h.V.g.a.e.X.X.) X.-.-.-.-.' -.+.-.( W Q ( W ( &.` W ( ` W I F p d ",
"e h Y Y H Y Y Q &.( ^ &.&.( ( _ t.>.%.` ( Q ( _ E Q ( ^ &.&.h.%.) ~.`.(.(.(.).).(.(.(.(.(.(.(.(.S.;.Y T Y Y :.+.:.a.a.0.R B t 6 ",
"e f F Y Q Q _ F k l l v v c z l B V V S B V c V Y e.t.h.S.S.S.( U ;.S.S.V.g.) ! ' a t i u u r r 3 z S.W Y ( :.:.0.-.+.u.Q B t 0 ",
"0 p H S ` Q a.S v V Y h.a.>.^ ( ` %.U u r f u g ) u.A.S.S.C.S.Y F ;.a.u.g.g.) E b e 7 < > , , 5 e 7 v a.S %...' -...-.:.Q l 0 8 ",
"p k R x F +.' Y F V Q w.a.h.w.] +.e.B , c c y > D :.-.:.u.:.j.Y m +.C.g.g.y.V.E l P P c T U T c L U 6 x V z :...] :.j.+.F l f s ",
"h B Q J Q ] :.J V F Q Y ( 0.0.0.a.H.n 3 W ` b r p Q -.a.u.c.c.F V +.S.Q.K.S...n a T T c _ T %.v U _ y u U J :.+...-.$.Q V V h h ",
"g z Y H R ' j.I S S E u.u.6.0.0.a.S.B ; P 5.K r e x +...C.C.C.F n +.r.u.6.-.Y l V _ _ t 0 w w t W T K K Y Q 0.-.( ..+.Z Q Y h g ",
"l n Y D J Q 6.H S Y Q $.a.>.w.>.:.S.S ; T %.` u s 3 U ..a.Q j.F B ;.u.u...+.i u b T _ 5 > 5 - 5 W L z B I Y 0.-.T +.Y S A.Y x x ",
"k v Y S I Q -.F S F ] u.6.0.a.4.6.A.V 3 ` ` t.f z 2 y ) ..+.u.F V ;.r...>.B 0 U _ %.T a u a t a _ _ U K K ( c.] ] +.V ] :.F l x ",
"y k Y Z V Q I.I V F ( C.6.0.A.h.a.a.B v 5.5.T 8 V v 3 m X.' :.Y S Q :.6.( t K /.^._ Y y 4 7 4 p t.t./.W V R 0.:.( D H 0.' J i t ",
"7 s Q S F Y Y S S F D ] :.-.:.:.+.:.x v ` ` f : K m c h E V.C.W H ( E Q g 7 B V m Y T a a k a z ^._ m V V Q ^ &.Y B 0.-...H 7 > ",
"L S R x V V J S F D S H Q E Q E Y Q k s _ _ M % S v c j d ) X.Y F &.W F < u c l z T T r u t r a _ U j K n V V Y B R :...:.Y V T ",
"v n E S B V B N B n p h h h h k k z u < V P g ; g e j c 6 j G B B Y Y f p I T 5._ T _ %.].'.].t.5.W %.%.v j V S B :.] +.( I x B ",
"e d Y Y +.] Y Y Y I F V n A J Y F V R Y Y Y Y T I F I Y I I I Y Y I Y T E ) ( _ W T T L T T ( R %.T _ Y L U Q N S ( -.' H Q q 9 ",
"p d z k j g j j g h h g g z L +.) Y :.:...:.+...Q W I z c b v m B n B n x n W ( ......! +.Q ) ( ^ ( ( W U F n b F I R Q ( Y i d ",
"4 > 6 9 4 < , t s 7 - > < > y W ` J.a.a.0.6.) ) ) W s 6 & ; & # $ $ & O 6 w n t.X.r.X.:.g.a.u.a.-.!.I e y 9 q z x y t y y 9 > - ",
"7 < , < ; > 7 f v r - ; ; o ; f g g g g p u u u f e ; d ; 1 3 : 1 & 3 : q d q g g d f g g g s k h k < ; $ ; 9 m m 5 = = $ $ - > ",
"T h.5.>.5.%.5.W W ( ` _ ` _ _ T ( L L K L L L L L Y ^ &._ 5.^.t.t._ ` /.).).(.%.t.r.%.` 5.>.%.5.S.5./.(.).`.`.(.(.).`.).(.(.`.` ",
"v K L L F L S L K F S F L L F L L h./.h.J.S.A.w.>.t.-.>.>.>.>.h.t.h.h.h.%.1.t.a.e.h.h.&.%.S.J.L K S F S m V S S V V V V B m B k ",
"v B b m S v v v n c v v z x m V m S Y L S S V B n n n n m V V V V m V V B m V m m v m v V L K m V v z l z c c x v v c V m k c l ",
"g c T h h b f t g v y e c j t u p t 9 0 r 0 e 0 f S S F T W _ ( T Y T W ( W ` c e e e 0 9 e y g p g m K e u b c e f K c a K m j ",
"m ( 5.W U ( W Y R _ Y L ( Y V S V S F F F V Z V T ..Q ' ^ ] :.c.:.] +.4...-.0.&.F F F S F S F Z V L %.&.Y Y ` ;.( ( w.^ ( J.4.Y ",
"N C N C B N C Y Y D C C C 9.L.L.9.L.L.L.L.$.L.L.$.] ] o.$.9.#.j.a.9.$.o.o.7.9.9.L.L.L.L.L.9.9.9.9.$.o.$.9.9.$.$.a.j.$.J Y D B C ",
"b N x k x b N N n B N z x o.o.9.6...o.7.9.o.$.o.o.$.] o.$.$.L.L.9...' o.$.$.9.$.o.' o.7.7.7.-.o.9.9.9.9.9.9.9.9.9.6.R.I D N x N ",
"Y ' ' Y h a h a d g g p g l z k V ] Y ' 9.$.$.$.] $.o.o.$.$.L.L.L...' o.7.o.$.$.>.o.9.6.7.o.o.R N x z z x k z k k h l h B J R R ",
"' 9.R.k   > o . o   X o o . . + > V Q Y R ] Q R H ' R ] ] >.>.9.$.......o.+.' >.] ( ..' ' R ( < +   . . . . . . X   - + - Q L.9.",
"z z d   $ i $ $ - @ * * $ - $ 9 q q Q Y R T R H Z Y R Y Y ( R Y ( ^ ] _ ( W ( ` T Y Y T R ( i + i # > # = = = = = + t 9   7 z k ",
">   + 7 w p w q t t t t i t 9 i ; o $ o @ @ o o o o o o o o o o O O o o o o o o o o o + @ o   o i 6 q i q i i t t w p t 9 ;   o ",
"i 9 9 w 9 9 w q q 9 9 9 9 9 i n k k k h h h z k k k g g h k k k k h k k k k k k k k k k l z N N Z k 9 9 9 9 q q w w w w q 9 9 9 ",
"l x x x b B N v N N x v x v Y Q -.5.h.A.-.-.R.L.9.L.9.9.L.P.W.c.c.9.9.9.I.I.!.A.L.9.L.9.9.L.w.R.R.9.Z N N l x z l z z z x l l l "
};
